<svg width="1000" height="750" viewBox="0 0 1000 750" fill="none" xmlns="http://www.w3.org/2000/svg">
<rect width="1000" height="750" rx="36" fill="#F7FAFA"/>
<circle cx="840" cy="110" r="150" fill="#F28A1A" fill-opacity="0.10"/>
<rect x="85" y="90" width="830" height="570" rx="28" fill="#FFFFFF" stroke="#D8E6E8" stroke-width="4"/>
<rect x="120" y="125" width="760" height="70" rx="14" fill="#0D2B5A"/>
<rect x="150" y="150" width="180" height="20" rx="10" fill="#36A9B5"/>
<rect x="145" y="250" width="710" height="35" rx="10" fill="#0D2B5A"/>
<rect x="175" y="285" width="650" height="205" rx="18" fill="#EAF0F8"/>
<path d="M280 320V375L240 460C232 478 244 498 264 498H336C356 498 368 478 360 460L320 375V320" fill="#FFFFFF" stroke="#0D2B5A" stroke-width="12"/>
<path d="M255 430H346" stroke="#36A9B5" stroke-width="28" stroke-linecap="round"/>
<path d="M475 322H535V388C535 407 548 417 563 435C580 456 566 494 540 494H470C444 494 430 456 447 435C462 417 475 407 475 388V322Z" fill="#FFFFFF" stroke="#177B88" stroke-width="12"/>
<path d="M454 440H556" stroke="#F28A1A" stroke-width="28" stroke-linecap="round"/>
<rect x="635" y="320" width="120" height="175" rx="20" fill="#FFFFFF"/>
<rect x="665" y="350" width="18" height="112" rx="9" fill="#0D2B5A"/>
<rect x="704" y="350" width="18" height="112" rx="9" fill="#36A9B5"/>
<rect x="743" y="350" width="18" height="112" rx="9" fill="#F28A1A"/>
<rect x="145" y="530" width="710" height="70" rx="16" fill="#EAF5F5"/>
</svg>